<mxfile host="65bd71144e">
    <diagram id="karOwpz8Ogsd6N1gKtSJ" name="Page-1">
        <mxGraphModel dx="1130" dy="792" grid="1" gridSize="10" guides="1" tooltips="1" connect="1" arrows="1" fold="1" page="1" pageScale="1" pageWidth="850" pageHeight="1100" math="0" shadow="0">
            <root>
                <mxCell id="0"/>
                <mxCell id="1" parent="0"/>
                <mxCell id="2" value="&lt;h1&gt;Rabbit&lt;/h1&gt;" style="rounded=1;whiteSpace=wrap;html=1;" vertex="1" parent="1">
                    <mxGeometry x="80" y="270" width="200" height="60" as="geometry"/>
                </mxCell>
                <mxCell id="3" value="" style="shape=ellipse;html=1;dashed=0;whitespace=wrap;perimeter=ellipsePerimeter;fillColor=#E0DEA2;" vertex="1" parent="1">
                    <mxGeometry x="120" y="380" width="100" height="40" as="geometry"/>
                </mxCell>
                <mxCell id="4" value="" style="whiteSpace=wrap;html=1;shape=mxgraph.basic.oval_callout;direction=west;fillColor=#E0DEA2;" vertex="1" parent="1">
                    <mxGeometry x="100" y="360" width="60" height="60" as="geometry"/>
                </mxCell>
                <mxCell id="6" value="" style="shape=ellipse;html=1;dashed=0;whitespace=wrap;perimeter=ellipsePerimeter;direction=south;fillColor=#FFFFFF;" vertex="1" parent="1">
                    <mxGeometry x="210" y="410" width="15" height="35" as="geometry"/>
                </mxCell>
                <mxCell id="7" value="" style="shape=ellipse;html=1;dashed=0;whitespace=wrap;perimeter=ellipsePerimeter;direction=west;fillColor=#FFFFFF;" vertex="1" parent="1">
                    <mxGeometry x="190" y="430" width="35" height="15" as="geometry"/>
                </mxCell>
                <mxCell id="8" value="" style="shape=ellipse;html=1;dashed=0;whitespace=wrap;perimeter=ellipsePerimeter;direction=south;fillColor=#FFFFFF;" vertex="1" parent="1">
                    <mxGeometry x="140" y="410" width="15" height="35" as="geometry"/>
                </mxCell>
                <mxCell id="10" value="" style="shape=ellipse;html=1;dashed=0;whitespace=wrap;perimeter=ellipsePerimeter;direction=west;strokeColor=#F0F0F0;fillColor=#FFFFFF;" vertex="1" parent="1">
                    <mxGeometry x="120" y="430" width="35" height="15" as="geometry"/>
                </mxCell>
                <mxCell id="11" value="" style="curved=1;endArrow=classic;html=1;" edge="1" parent="1">
                    <mxGeometry width="50" height="50" relative="1" as="geometry">
                        <mxPoint x="220" y="400" as="sourcePoint"/>
                        <mxPoint x="290" y="400" as="targetPoint"/>
                        <Array as="points">
                            <mxPoint x="260" y="420"/>
                            <mxPoint x="270" y="400"/>
                            <mxPoint x="220" y="350"/>
                        </Array>
                    </mxGeometry>
                </mxCell>
                <mxCell id="15" value="" style="ellipse;whiteSpace=wrap;html=1;aspect=fixed;fillColor=#0F1F0E;" vertex="1" parent="1">
                    <mxGeometry x="535" y="447.5" width="30" height="30" as="geometry"/>
                </mxCell>
                <mxCell id="18" value="&lt;h1&gt;Turtle&lt;/h1&gt;" style="rounded=1;whiteSpace=wrap;html=1;" vertex="1" parent="1">
                    <mxGeometry x="490" y="260" width="200" height="60" as="geometry"/>
                </mxCell>
                <mxCell id="19" value="&lt;h1&gt;pig&lt;/h1&gt;" style="rounded=1;whiteSpace=wrap;html=1;" vertex="1" parent="1">
                    <mxGeometry x="840" y="260" width="200" height="60" as="geometry"/>
                </mxCell>
                <mxCell id="20" value="" style="ellipse;whiteSpace=wrap;html=1;fillColor=#FF8FDA;" vertex="1" parent="1">
                    <mxGeometry x="855" y="350" width="170" height="110" as="geometry"/>
                </mxCell>
                <mxCell id="21" value="" style="ellipse;whiteSpace=wrap;html=1;aspect=fixed;fillColor=#FF8FDA;" vertex="1" parent="1">
                    <mxGeometry x="800" y="365" width="80" height="80" as="geometry"/>
                </mxCell>
                <mxCell id="22" value="" style="curved=1;endArrow=classic;html=1;" edge="1" parent="1">
                    <mxGeometry width="50" height="50" relative="1" as="geometry">
                        <mxPoint x="1025" y="410" as="sourcePoint"/>
                        <mxPoint x="1075" y="360" as="targetPoint"/>
                        <Array as="points">
                            <mxPoint x="1075" y="410"/>
                            <mxPoint x="1025" y="360"/>
                        </Array>
                    </mxGeometry>
                </mxCell>
                <mxCell id="23" value="" style="triangle;whiteSpace=wrap;html=1;direction=north;fillColor=#FF8FDA;" vertex="1" parent="1">
                    <mxGeometry x="830" y="350" width="40" height="30" as="geometry"/>
                </mxCell>
                <mxCell id="24" style="edgeStyle=none;html=1;exitX=0.5;exitY=1;exitDx=0;exitDy=0;entryX=0;entryY=0.5;entryDx=0;entryDy=0;" edge="1" parent="1" source="23" target="23">
                    <mxGeometry relative="1" as="geometry"/>
                </mxCell>
                <mxCell id="25" style="edgeStyle=none;html=1;exitX=0.5;exitY=0;exitDx=0;exitDy=0;entryX=0;entryY=0.5;entryDx=0;entryDy=0;" edge="1" parent="1" source="23" target="23">
                    <mxGeometry relative="1" as="geometry"/>
                </mxCell>
                <mxCell id="26" value="" style="shape=flexArrow;endArrow=classic;html=1;fillColor=#FF8FDA;" edge="1" parent="1">
                    <mxGeometry width="50" height="50" relative="1" as="geometry">
                        <mxPoint x="890" y="490" as="sourcePoint"/>
                        <mxPoint x="890" y="450" as="targetPoint"/>
                    </mxGeometry>
                </mxCell>
                <mxCell id="27" value="" style="shape=flexArrow;endArrow=classic;html=1;width=6;endSize=4.33;fillColor=#FF8FDA;" edge="1" parent="1">
                    <mxGeometry width="50" height="50" relative="1" as="geometry">
                        <mxPoint x="990" y="490" as="sourcePoint"/>
                        <mxPoint x="990" y="450" as="targetPoint"/>
                    </mxGeometry>
                </mxCell>
                <mxCell id="35" style="edgeStyle=none;html=1;exitX=0;exitY=0;exitDx=0;exitDy=0;fillColor=#FF8FDA;" edge="1" parent="1" source="28" target="34">
                    <mxGeometry relative="1" as="geometry"/>
                </mxCell>
                <mxCell id="28" value="" style="ellipse;whiteSpace=wrap;html=1;aspect=fixed;fillColor=#0F1F0E;" vertex="1" parent="1">
                    <mxGeometry x="635" y="447.5" width="30" height="30" as="geometry"/>
                </mxCell>
                <mxCell id="30" value="" style="verticalLabelPosition=bottom;verticalAlign=top;html=1;shape=mxgraph.basic.orthogonal_triangle;fillColor=#20521A;" vertex="1" parent="1">
                    <mxGeometry x="665" y="392.5" width="60" height="30" as="geometry"/>
                </mxCell>
                <mxCell id="33" value="" style="ellipse;whiteSpace=wrap;html=1;fillColor=#20521A;" vertex="1" parent="1">
                    <mxGeometry x="440" y="377.5" width="120" height="55" as="geometry"/>
                </mxCell>
                <mxCell id="34" value="" style="ellipse;whiteSpace=wrap;html=1;fillColor=#361905;" vertex="1" parent="1">
                    <mxGeometry x="520" y="350" width="170" height="110" as="geometry"/>
                </mxCell>
            </root>
        </mxGraphModel>
    </diagram>
</mxfile>